<svg width="516" height="536" viewBox="0 0 516 536" fill="none" xmlns="http://www.w3.org/2000/svg">
<path d="M233.992 87.4888C238.374 60.912 276.622 60.912 281.004 87.4888L300.469 205.556C302.129 215.623 310.027 223.514 320.103 225.172L438.278 244.62C464.879 248.997 464.879 287.211 438.278 291.588L320.103 311.036C310.027 312.694 302.129 320.585 300.469 330.652L281.004 448.719C276.622 475.296 238.374 475.296 233.992 448.719L214.527 330.652C212.867 320.585 204.969 312.694 194.893 311.036L76.7177 291.588C50.1166 287.211 50.1165 248.997 76.7177 244.62L194.893 225.172C204.969 223.514 212.867 215.623 214.527 205.556L233.992 87.4888Z" fill="#B30000"/>
<path fill-rule="evenodd" clip-rule="evenodd" d="M212.145 22.1939C235.54 -7.39796 280.459 -7.39796 303.854 22.1939C318.478 40.6916 342.803 48.588 365.517 42.211C401.853 32.0096 438.192 58.3875 439.71 96.0664C440.659 119.619 455.692 140.291 477.819 148.471C513.218 161.556 527.098 204.237 506.159 235.611C493.069 255.223 493.069 280.775 506.159 300.387C527.099 331.761 513.218 374.443 477.819 387.528C455.692 395.708 440.659 416.38 439.71 439.933C438.192 477.611 401.853 503.99 365.517 493.789C342.803 487.412 318.478 495.308 303.854 513.806C280.459 543.398 235.54 543.398 212.145 513.806C197.521 495.308 173.198 487.412 150.484 493.789C114.147 503.991 77.8076 477.612 76.2901 439.933C75.3414 416.38 60.3082 395.708 38.1808 387.528C2.78212 374.443 -11.0985 331.761 9.84123 300.387C22.9304 280.776 22.9305 255.223 9.84123 235.611C-11.0985 204.237 2.78212 161.556 38.1808 148.471C60.3082 140.291 75.3415 119.619 76.2901 96.0664C77.8076 58.3874 114.147 32.0094 150.484 42.211C173.197 48.5878 197.521 40.6913 212.145 22.1939ZM301.731 35.5941C279.655 7.67178 237.27 7.67151 215.195 35.5941C201.396 53.0486 178.444 60.4995 157.011 54.4821C122.724 44.8561 88.4349 69.7465 87.0027 105.3C86.1076 127.525 71.9219 147.032 51.0423 154.75C17.6403 167.098 4.54316 207.371 24.3018 236.975C36.6525 255.481 36.6525 279.592 24.3018 298.097C4.54316 327.702 17.6403 367.975 51.0423 380.323C71.9219 388.041 86.1076 407.548 87.0027 429.773C88.4348 465.326 122.724 490.217 157.011 480.591C178.444 474.573 201.396 482.024 215.195 499.479C237.27 527.401 279.655 527.401 301.731 499.479C315.53 482.024 338.483 474.573 359.916 480.591C394.203 490.217 428.492 465.326 429.924 429.773C430.819 407.548 445.005 388.041 465.885 380.323C499.286 367.975 512.384 327.702 492.625 298.097C480.274 279.592 480.274 255.481 492.625 236.975C512.384 207.371 499.286 167.098 465.885 154.75C445.005 147.032 430.819 127.525 429.924 105.3C428.492 69.7466 394.203 44.8564 359.916 54.4821C338.483 60.4995 315.53 53.0486 301.731 35.5941Z" fill="#00C3FF"/>
</svg>
